<svg width="43" height="43" viewBox="0 0 43 43" fill="none" xmlns="http://www.w3.org/2000/svg">
<rect y="9" width="43" height="29" fill="#009739"/>
<path d="M8.876 30.256C9.692 30.304 10.232 30.328 10.496 30.328C11.312 30.328 12.032 30.316 12.656 30.292C13.304 30.268 13.856 30.244 14.312 30.22C15.488 30.148 16.544 30.112 17.48 30.112C18.392 30.112 19.064 30.352 19.496 30.832C19.928 31.312 20.144 31.948 20.144 32.74C20.144 33.124 19.892 33.436 19.388 33.676C18.884 33.892 18.368 34 17.84 34C17.384 34 16.436 33.952 14.996 33.856C13.268 33.712 11.912 33.64 10.928 33.64C10.4 33.64 9.776 33.676 9.056 33.748C8.768 33.772 8.42 33.796 8.012 33.82C7.604 33.844 7.148 33.856 6.644 33.856C5.684 33.856 4.952 33.724 4.448 33.46C3.944 33.196 3.692 32.716 3.692 32.02C3.692 31.42 3.932 30.808 4.412 30.184C4.892 29.56 5.564 28.816 6.428 27.952L7.292 27.088C7.676 26.68 8.384 25.984 9.416 25C11.12 23.464 12.44 22.108 13.376 20.932C14.336 19.756 14.816 18.592 14.816 17.44C14.816 16.696 14.456 16.096 13.736 15.64C13.04 15.16 12.236 14.92 11.324 14.92C9.932 14.92 8.924 15.232 8.3 15.856C7.7 16.456 7.4 17.332 7.4 18.484C7.4 18.772 7.232 19.036 6.896 19.276C6.584 19.492 6.188 19.6 5.708 19.6C5.036 19.6 4.568 19.36 4.304 18.88C4.04 18.4 3.908 17.812 3.908 17.116C3.908 16.012 4.244 15.04 4.916 14.2C5.588 13.336 6.5 12.664 7.652 12.184C8.828 11.704 10.124 11.464 11.54 11.464C12.548 11.464 13.592 11.716 14.672 12.22C15.776 12.7 16.688 13.36 17.408 14.2C18.152 15.016 18.524 15.916 18.524 16.9C18.524 18.388 18.152 19.804 17.408 21.148C16.664 22.492 15.788 23.692 14.78 24.748C13.796 25.78 12.512 27.004 10.928 28.42C10.16 29.068 9.476 29.68 8.876 30.256ZM27.8252 30.256C28.6412 30.304 29.1812 30.328 29.4452 30.328C30.2612 30.328 30.9812 30.316 31.6052 30.292C32.2532 30.268 32.8052 30.244 33.2612 30.22C34.4372 30.148 35.4932 30.112 36.4292 30.112C37.3412 30.112 38.0132 30.352 38.4452 30.832C38.8772 31.312 39.0932 31.948 39.0932 32.74C39.0932 33.124 38.8412 33.436 38.3372 33.676C37.8332 33.892 37.3172 34 36.7892 34C36.3332 34 35.3852 33.952 33.9452 33.856C32.2172 33.712 30.8612 33.64 29.8772 33.64C29.3492 33.64 28.7252 33.676 28.0052 33.748C27.7172 33.772 27.3692 33.796 26.9612 33.82C26.5532 33.844 26.0972 33.856 25.5932 33.856C24.6332 33.856 23.9012 33.724 23.3972 33.46C22.8932 33.196 22.6412 32.716 22.6412 32.02C22.6412 31.42 22.8812 30.808 23.3612 30.184C23.8412 29.56 24.5132 28.816 25.3772 27.952L26.2412 27.088C26.6252 26.68 27.3332 25.984 28.3652 25C30.0692 23.464 31.3892 22.108 32.3252 20.932C33.2852 19.756 33.7652 18.592 33.7652 17.44C33.7652 16.696 33.4052 16.096 32.6852 15.64C31.9892 15.16 31.1852 14.92 30.2732 14.92C28.8812 14.92 27.8732 15.232 27.2492 15.856C26.6492 16.456 26.3492 17.332 26.3492 18.484C26.3492 18.772 26.1812 19.036 25.8452 19.276C25.5332 19.492 25.1372 19.6 24.6572 19.6C23.9852 19.6 23.5172 19.36 23.2532 18.88C22.9892 18.4 22.8572 17.812 22.8572 17.116C22.8572 16.012 23.1932 15.04 23.8652 14.2C24.5372 13.336 25.4492 12.664 26.6012 12.184C27.7772 11.704 29.0732 11.464 30.4892 11.464C31.4972 11.464 32.5412 11.716 33.6212 12.22C34.7252 12.7 35.6372 13.36 36.3572 14.2C37.1012 15.016 37.4732 15.916 37.4732 16.9C37.4732 18.388 37.1012 19.804 36.3572 21.148C35.6132 22.492 34.7372 23.692 33.7292 24.748C32.7452 25.78 31.4612 27.004 29.8772 28.42C29.1092 29.068 28.4252 29.68 27.8252 30.256Z" fill="#FFCC29"/>
</svg>
